<?xml version="1.0" encoding="utf-8"?>
<svg viewBox="-2.179 -1.766 16 16" width="16" height="16" xmlns="http://www.w3.org/2000/svg">
  <path stroke="none" fill="#000000" d="M 3.287 -0.396 L 4.603 -1.766 L 7.212 0.999 M 10.591 0.147 L 13.199 2.912 L 13.224 5.703 L 11.907 7.073 L 13.199 8.443 L 9.274 12.604 L 6.69 12.604 L 5.647 13.715 L 3.734 11.7 L 9.994 5.057 L 8.504 3.481 L 5.895 6.246 L 4.603 4.85 L 8.529 0.715 L 10.591 0.147 M -2.179 5.419 L -0.887 4.049 L 4.33 9.58 L 3.038 10.95 M 2.765 0.172 L 5.374 2.938 L 4.082 4.308 L 1.473 1.542 M -0.365 3.481 L 0.951 2.111 L 6.169 7.642 L 4.852 9.012 L -0.365 3.481" style=""/>
</svg>